<?xml version="1.0" encoding="utf-8"?>
<!-- Generator: Adobe Illustrator 23.1.0, SVG Export Plug-In . SVG Version: 6.00 Build 0)  -->
<svg version="1.1" id="Layer_1" xmlns="http://www.w3.org/2000/svg" xmlns:xlink="http://www.w3.org/1999/xlink" x="0px" y="0px"
	 viewBox="0 0 32 21.6" style="enable-background:new 0 0 32 21.6;" xml:space="preserve">
<style type="text/css">
	.st0{opacity:0.8;fill:#FDD835;enable-background:new    ;}
</style>
<path class="st0" d="M0,18.5V1.8c0,0,0-0.2,0.1-0.5l10.4,8.4L0.1,19.1C0.1,18.9,0,18.7,0,18.5L0,18.5z M1.4,0.1C1.6,0,1.7,0,1.9,0
	H30c0.2,0,0.4,0,0.6,0.1L20.1,8.5l-1.4,1L16,11.7l-2.7-2.1l-1.4-1L1.4,0.1z M1.4,20.2l10.5-9.5l4.1,3.1l4.1-3.1l10.5,9.5
	c-0.2,0.1-0.3,0.1-0.5,0.1H1.9C1.7,20.3,1.6,20.2,1.4,20.2L1.4,20.2z M21.4,9.6l10.4-8.4C31.9,1.4,32,1.6,32,1.8v16.7
	c0,0.2,0,0.4-0.1,0.6L21.4,9.6z"/>
</svg>
