<svg xmlns="http://www.w3.org/2000/svg" xmlns:xlink="http://www.w3.org/1999/xlink" width="88" height="88" viewBox="0 0 88 88"><defs><filter id="a" x="0" y="0" width="88" height="88" filterUnits="userSpaceOnUse"><feOffset dy="3" input="SourceAlpha"/><feGaussianBlur stdDeviation="3" result="b"/><feFlood flood-opacity="0.161"/><feComposite operator="in" in2="b"/><feComposite in="SourceGraphic"/></filter></defs><g transform="translate(-180 -51)"><g transform="matrix(1, 0, 0, 1, 180, 51)" filter="url(#a)"><circle cx="35" cy="35" r="35" transform="translate(9 6)" fill="#fdd835"/></g><g transform="translate(204.55 78.875)"><path d="M0,0H39.17V26.466H0Z" fill="none"/><path d="M4.632,29.293H30.746a1.812,1.812,0,0,0,1.632-1.941,1.812,1.812,0,0,0-1.632-1.941H4.632A1.812,1.812,0,0,0,3,27.352,1.812,1.812,0,0,0,4.632,29.293Zm0-9.705H30.746a1.812,1.812,0,0,0,1.632-1.941,1.812,1.812,0,0,0-1.632-1.941H4.632A1.812,1.812,0,0,0,3,17.646,1.812,1.812,0,0,0,4.632,19.587ZM3,7.941A1.812,1.812,0,0,0,4.632,9.882H30.746a1.812,1.812,0,0,0,1.632-1.941A1.812,1.812,0,0,0,30.746,6H4.632A1.812,1.812,0,0,0,3,7.941Z" transform="translate(1.896 -4.42)" fill="#1d2d60"/></g></g></svg>