<svg xmlns="http://www.w3.org/2000/svg" width="35.886" height="35.886" viewBox="0 0 35.886 35.886"><path d="M20.518,2.25A17.549,17.549,0,0,0,2.9,19.731a17.3,17.3,0,0,0,2.528,9.026L2.25,38.136,12,35.037A17.647,17.647,0,0,0,38.136,19.731,17.549,17.549,0,0,0,20.518,2.25Zm8.76,24.12a4.55,4.55,0,0,1-3.116,2.008c-.826.044-.85.64-5.354-1.316s-7.213-6.716-7.427-7.023a8.639,8.639,0,0,1-1.662-4.682,4.992,4.992,0,0,1,1.715-3.663,1.725,1.725,0,0,1,1.22-.514c.355-.006.584-.011.847,0s.656-.055,1,.852,1.157,3.136,1.261,3.363a.816.816,0,0,1,.008.783,3.059,3.059,0,0,1-.477.728c-.235.252-.495.564-.7.757-.234.213-.478.446-.232.9a13.481,13.481,0,0,0,2.385,3.183A12.291,12.291,0,0,0,22.271,24.1c.442.241.705.214.979-.074s1.173-1.261,1.49-1.7.614-.35,1.021-.187,2.576,1.326,3.018,1.566.736.363.842.553A3.7,3.7,0,0,1,29.278,26.37Z" transform="translate(-2.25 -2.25)" fill="#1d2d60" opacity="0.8"/></svg>