<?xml version="1.0" encoding="utf-8"?>
<!-- Generator: Adobe Illustrator 23.1.0, SVG Export Plug-In . SVG Version: 6.00 Build 0)  -->
<svg version="1.1" id="Layer_1" xmlns="http://www.w3.org/2000/svg" xmlns:xlink="http://www.w3.org/1999/xlink" x="0px" y="0px"
	 viewBox="0 0 35.9 35.9" style="enable-background:new 0 0 35.9 35.9;" xml:space="preserve">
<style type="text/css">
	.st0{opacity:0.8;fill:#FDD835;enable-background:new    ;}
</style>
<path class="st0" d="M18.3,0C8.6,0,0.7,7.8,0.7,17.5c0,0,0,0,0,0c0,3.2,0.9,6.3,2.5,9L0,35.9l9.8-3.1c8.5,4.7,19.3,1.6,24-7
	c1.4-2.6,2.1-5.4,2.2-8.3C35.8,7.8,28,0,18.3,0C18.3,0,18.3,0,18.3,0z M27,24.1c-0.7,1.1-1.8,1.8-3.1,2c-0.8,0-0.9,0.6-5.4-1.3
	s-7.2-6.7-7.4-7c-1-1.4-1.6-3-1.7-4.7c0-1.4,0.7-2.7,1.7-3.7c0.3-0.3,0.8-0.5,1.2-0.5c0.4,0,0.6,0,0.8,0s0.7-0.1,1,0.9
	s1.2,3.1,1.3,3.4c0.1,0.2,0.1,0.5,0,0.8c-0.1,0.3-0.3,0.5-0.5,0.7c-0.2,0.3-0.5,0.6-0.7,0.8c-0.2,0.2-0.5,0.4-0.2,0.9
	c0.6,1.2,1.4,2.2,2.4,3.2c1,1,2.2,1.8,3.5,2.4c0.4,0.2,0.7,0.2,1-0.1s1.2-1.3,1.5-1.7s0.6-0.4,1-0.2s2.6,1.3,3,1.6s0.7,0.4,0.8,0.6
	C27.5,22.7,27.3,23.5,27,24.1z"/>
</svg>
